<svg xmlns="http://www.w3.org/2000/svg" width="600" height="900" viewBox="0 0 600 900"><defs><linearGradient id="bg" x1="0" y1="0" x2="0.15" y2="1"><stop offset="0" stop-color="#1a1a2e"/><stop offset="1" stop-color="#0a0a0f"/></linearGradient><radialGradient id="glow" cx="0.5" cy="0.34" r="0.65"><stop offset="0" stop-color="#4a3a7a" stop-opacity="0.55"/><stop offset="1" stop-color="#c9a24a" stop-opacity="0"/></radialGradient><linearGradient id="vig" x1="0" y1="0" x2="0" y2="1"><stop offset="0" stop-color="#000000" stop-opacity="0"/><stop offset="0.65" stop-color="#000000" stop-opacity="0"/><stop offset="1" stop-color="#000000" stop-opacity="0.55"/></linearGradient></defs><rect width="600" height="900" fill="url(#bg)"/><rect width="600" height="900" fill="url(#glow)"/><circle cx="300" cy="260" r="115" fill="none" stroke="#c9a24a" stroke-width="3" stroke-opacity="0.8"/><circle cx="300" cy="260" r="90" fill="none" stroke="#c9a24a" stroke-width="1.5" stroke-opacity="0.5"/><g stroke="#c9a24a" stroke-width="3" stroke-opacity="0.7"><line x1="300" y1="260" x2="415" y2="260"/><line x1="300" y1="260" x2="399" y2="317"/><line x1="300" y1="260" x2="357" y2="359"/><line x1="300" y1="260" x2="300" y2="375"/><line x1="300" y1="260" x2="243" y2="359"/><line x1="300" y1="260" x2="201" y2="317"/><line x1="300" y1="260" x2="185" y2="260"/><line x1="300" y1="260" x2="201" y2="203"/><line x1="300" y1="260" x2="243" y2="161"/><line x1="300" y1="260" x2="300" y2="145"/><line x1="300" y1="260" x2="357" y2="161"/><line x1="300" y1="260" x2="399" y2="203"/></g><circle cx="300" cy="260" r="10" fill="#c9a24a"/><text x="300" y="430" text-anchor="middle" font-family="Manrope, Arial, sans-serif" font-size="48" font-weight="800" fill="#ffffff"><tspan x="300" dy="0">Kalachakra</tspan></text><rect x="60" y="790" width="480" height="2" fill="#ffffff" opacity="0.25"/><text x="300" y="826" text-anchor="middle" font-family="Georgia, serif" font-size="26" letter-spacing="9" fill="#c9a24a">BUTTERFLIX</text><text x="300" y="860" text-anchor="middle" font-family="Manrope, Arial, sans-serif" font-size="15" letter-spacing="4" fill="#c9c5b8">TOLLYWOOD · TV SHOW</text><rect width="600" height="900" fill="url(#vig)"/></svg>